<svg width="200" height="200" viewBox="0 0 24 24" xmlns="http://www.w3.org/2000/svg">
  <rect x="3" y="3" width="18" height="18" rx="5" fill="#6366F1"/>

  <path 
    d="M20 13c0 5-3.5 7.5-7.66 8.95a1 1 0 0 1-.67-.01C7.5 20.5 4 18 4 13V6a1 1 0 0 1 1-1c2 0 4.5-1.2 6.24-2.72a1.17 1.17 0 0 1 1.52 0C14.51 3.81 17 5 19 5a1 1 0 0 1 1 1z" 
    fill="none" 
    stroke="#0f172a" 
    stroke-width="2" 
    stroke-linecap="round" 
    stroke-linejoin="round"
    vector-effect="non-scaling-stroke"
    transform="translate(12 12) scale(0.7) translate(-12 -12)"/>

</svg>